<?xml version="1.0" encoding="utf-8"?><svg viewBox="0 0 341 432" xmlns="http://www.w3.org/2000/svg" xmlns:xlink="http://www.w3.org/1999/xlink"><style>:root>svg{display:none}:root>svg:target{display:block}</style><svg fill="none" viewBox="0 0 10 6" id="accordion-arrow" xmlns="http://www.w3.org/2000/svg"><path stroke="currentColor" stroke-width=".714" d="M.253.747l5 5.001M4.747 5.748L9.748.747"/></svg><svg fill="none" viewBox="0 0 25 25" id="basket-minus" xmlns="http://www.w3.org/2000/svg"><path d="M12.5 21C7.8 21 4 17.2 4 12.5S7.8 4 12.5 4 21 7.8 21 12.5 17.2 21 12.5 21zm0-16A7.49 7.49 0 005 12.5c0 4.15 3.35 7.5 7.5 7.5s7.5-3.35 7.5-7.5S16.65 5 12.5 5z" fill="currentColor"/><path d="M8 12h9v1H8v-1z" fill="currentColor"/></svg><svg fill="none" viewBox="0 0 25 25" id="basket-plus" xmlns="http://www.w3.org/2000/svg"><path d="M12.5 21C7.8 21 4 17.2 4 12.5S7.8 4 12.5 4 21 7.8 21 12.5 17.2 21 12.5 21zm0-16A7.49 7.49 0 005 12.5c0 4.15 3.35 7.5 7.5 7.5s7.5-3.35 7.5-7.5S16.65 5 12.5 5z" fill="currentColor"/><path d="M8 12h9v1H8v-1z" fill="currentColor"/><path d="M12 8h1v9h-1V8z" fill="currentColor"/></svg><svg fill="none" viewBox="0 0 17 15" id="cart" xmlns="http://www.w3.org/2000/svg"><path d="M6.888 14.112c.811 0 1.468-.56 1.468-1.25s-.657-1.25-1.468-1.25c-.811 0-1.469.56-1.469 1.25s.658 1.25 1.469 1.25zM13.741 14.112c.811 0 1.469-.56 1.469-1.25s-.658-1.25-1.469-1.25-1.468.56-1.468 1.25.657 1.25 1.468 1.25z" stroke="currentColor" stroke-width=".5"/><path d="M.524.362h1.958l3.43 9.167h7.829" stroke="currentColor" stroke-width=".5" stroke-linecap="round" stroke-linejoin="round"/><path d="M5.15 7.445l-1.884-5H15.51a.56.56 0 01.223.046c.07.03.13.074.175.127a.385.385 0 01.087.181.358.358 0 01-.02.195L14.343 7.16a.429.429 0 01-.178.207.55.55 0 01-.286.078h-8.73z" stroke="currentColor" stroke-width=".5" stroke-linecap="round" stroke-linejoin="round"/></svg><svg fill="none" viewBox="0 0 10 6" id="dropdown-arrow" xmlns="http://www.w3.org/2000/svg"><path stroke="currentColor" stroke-width=".714" d="M.253.747l5 5.001M4.748 5.748l5-5.001"/></svg><svg fill="none" viewBox="0 0 24 11" id="header-burger" xmlns="http://www.w3.org/2000/svg"><path stroke="currentColor" stroke-width=".63" d="M0 .685h24M0 5.685h24M0 10.685h24"/></svg><svg fill="none" viewBox="0 0 224 341" id="hero-decor1" xmlns="http://www.w3.org/2000/svg"><path d="M-20 22.265c55.676-17.151 178.117-40.114 222.472 5.25 44.355 45.365 6.626 126.714-17.784 161.717-13.599 13.885-41.007 52.786-41.844 97.31C141.798 342.198-.124 344.298-20 336.948" stroke="#854F10" stroke-width=".697"/></svg><svg fill="none" viewBox="0 0 31 66" id="hero-decor1-mob" xmlns="http://www.w3.org/2000/svg"><path d="M-17 5.015c10.769-3.238 34.45-7.573 43.03.99 8.579 8.565 1.281 23.923-3.44 30.531-2.63 2.622-7.931 9.966-8.093 18.372C14.294 65.415-13.156 65.81-17 64.424" stroke="#854F10" stroke-width=".697"/></svg><svg fill="none" viewBox="0 0 341 432" id="hero-decor2" xmlns="http://www.w3.org/2000/svg"><path d="M345 17.018C288.282-.314 156.368-18.29 82.462 48.457S-2.186 219.49 1.682 263.289c8.88 71.745 45.718 203.869 122.03 158.404 95.39-56.832 85.937 33.454 221.288-113.664" stroke="#854F10" stroke-width=".807"/></svg><svg fill="none" viewBox="0 0 58 191" id="hero-decor2-mob" xmlns="http://www.w3.org/2000/svg"><path d="M129 8.04C107.895.423 58.811-7.479 31.311 21.86S-.185 97.034 1.254 116.285c3.304 31.535 17.011 89.608 45.406 69.624C82.154 160.93 78.637 200.613 129 135.95" stroke="#854F10" stroke-width=".807"/></svg><svg fill="none" viewBox="0 0 20 20" id="menu-close" xmlns="http://www.w3.org/2000/svg"><path d="M5 5l10 10m0-10L5 15" stroke="currentColor" stroke-width=".625" stroke-linecap="round"/></svg><svg fill="none" viewBox="0 0 56 55" id="product-cart" xmlns="http://www.w3.org/2000/svg"><ellipse cx="28" cy="27.5" rx="28" ry="27.5" fill="#000"/><path d="M23.335 43c1.572 0 2.847-1.222 2.847-2.728 0-1.506-1.275-2.727-2.847-2.727s-2.847 1.221-2.847 2.727c0 1.506 1.275 2.727 2.847 2.727zM36.62 43c1.572 0 2.847-1.222 2.847-2.728 0-1.506-1.275-2.727-2.847-2.727s-2.847 1.221-2.847 2.727c0 1.506 1.275 2.727 2.847 2.727z" stroke="#fff" stroke-width=".5"/><path d="M11 13h3.796l6.65 20H36.62" stroke="#fff" stroke-width=".5" stroke-linecap="round" stroke-linejoin="round"/><path d="M19.966 28.454l-3.652-10.91H40.05c.15 0 .3.035.433.1.134.066.25.161.338.278a.888.888 0 01.13.82l-3.163 9.09a.912.912 0 01-.345.45.977.977 0 01-.554.172H19.966z" stroke="#fff" stroke-width=".5" stroke-linecap="round" stroke-linejoin="round"/></svg><svg fill="none" viewBox="0 0 25 25" id="rating-star" xmlns="http://www.w3.org/2000/svg"><path d="M7.63 19.711l1.292-5.534-4.295-3.72 5.657-.49 2.216-5.22 2.216 5.219 5.656.49-4.295 3.72 1.293 5.534-4.87-2.937-4.87 2.938z" fill="currentColor"/></svg><svg fill="none" viewBox="0 0 40 39" id="slider-arrow-left" xmlns="http://www.w3.org/2000/svg"><path d="M12 18.316l15.79 6.316M12 18.316L27.79 12" stroke="currentColor" stroke-width=".63" stroke-linecap="round"/><path stroke="currentColor" stroke-width=".5" d="M.25.25h39.5v38.5H.25z"/></svg><svg fill="none" viewBox="0 0 40 39" id="slider-arrow-right" xmlns="http://www.w3.org/2000/svg"><path d="M28 20.684l-15.79-6.316M28 20.684L12.21 27" stroke="currentColor" stroke-width=".63" stroke-linecap="round"/><path stroke="currentColor" stroke-width=".5" d="M39.75 38.75H.25V.25h39.5z"/></svg></svg>